# xmcd
#
# Track frame offsets:
#	150
#	13924
#	28259
#	41904
#	56475
#	69986
#	85319
#	99590
#	114096
#	127987
#	142022
#	154903
#	169086
#	182821
#	198980
#	213663
#	226933
#	240882
#	254803
#	268106
#	281453
#	297309
#	311884
#	325135
#
# Disc length: 4536 seconds
#
# Revision: 0
# Processed by: cddbd v1.5.2PL0 Copyright (c) Steve Scherf et al.
# Submitted via: audiograbber 1.83.01
#
DISCID=6811b618
DTITLE=Barbecue Bob - The Rough Guide to Blues Legends
DYEAR=2015
DGENRE=Blues
TTITLE0=Poor Boy A Long Way From Home
TTITLE1=Barbecue Blues
TTITLE2=Honey, You're Going Too Fast
TTITLE3=Motherless Chile Blues
TTITLE4=She Looks So Good
TTITLE5=Thinkin' Funny Blues
TTITLE6=Honey, You Don't Know My Mind
TTITLE7=Going Up The Country
TTITLE8=Atlanta Moan
TTITLE9=It Just Won't Hay
TTITLE10=Chocolate To The Bone
TTITLE11=When The Saints Go Marching In
TTITLE12=She's Coming Back Some Cold Rainy Day
TTITLE13=Spider And The Fly
TTITLE14=It Just Won't Quit
TTITLE15=Yo Yo Blues
TTITLE16=Brown-Skin Girl
TTITLE17=Jesus' Blood Can Make Me Whole
TTITLE18=She Moves It Just Right
TTITLE19=Midnight Weeping Blues
TTITLE20=It Won't Be Long Now - Part 1
TTITLE21=It's Just Too Bad
TTITLE22=Doin' The Scraunch
TTITLE23=How Long Pretty Mamma?
EXTD=
EXTT0=
EXTT1=
EXTT2=
EXTT3=
EXTT4=
EXTT5=
EXTT6=
EXTT7=
EXTT8=
EXTT9=
EXTT10=
EXTT11=
EXTT12=
EXTT13=
EXTT14=
EXTT15=
EXTT16=
EXTT17=
EXTT18=
EXTT19=
EXTT20=
EXTT21=
EXTT22=
EXTT23=
PLAYORDER=
